<svg xmlns="http://www.w3.org/2000/svg" version="1.1" xmlns:xlink="http://www.w3.org/1999/xlink" xmlns:svgjs="http://svgjs.dev/svgjs" viewBox="0 0 800 800"><g transform="matrix(1,0,0,1,0,0)"><rect width="100" height="100" x="634" y="634" stroke-width="12" stroke="#15ff00" fill="none" opacity="0.87" transform="rotate(100, 400, 400)"></rect><rect width="116.66666666666667" height="116.66666666666667" x="602" y="602" stroke-width="12.333333333333334" stroke="#25f84a" fill="none" opacity="0.8808333333333334" transform="rotate(91.66666666666667, 400, 400)"></rect><rect width="133.33333333333334" height="133.33333333333334" x="570" y="570" stroke-width="12.666666666666666" stroke="#30f168" fill="none" opacity="0.8916666666666666" transform="rotate(83.33333333333333, 400, 400)"></rect><rect width="150" height="150" x="538" y="538" stroke-width="13" stroke="#39e980" fill="none" opacity="0.9025" transform="rotate(75, 400, 400)"></rect><rect width="166.66666666666669" height="166.66666666666669" x="506" y="506" stroke-width="13.333333333333334" stroke="#40e293" fill="none" opacity="0.9133333333333333" transform="rotate(66.66666666666666, 400, 400)"></rect><rect width="183.33333333333334" height="183.33333333333334" x="473.99999999999994" y="473.99999999999994" stroke-width="13.666666666666666" stroke="#47daa5" fill="none" opacity="0.9241666666666667" transform="rotate(58.33333333333333, 400, 400)"></rect><rect width="200" height="200" x="442" y="442" stroke-width="14" stroke="#4dd2b4" fill="none" opacity="0.935" transform="rotate(50, 400, 400)"></rect><rect width="216.66666666666669" height="216.66666666666669" x="409.9999999999999" y="409.9999999999999" stroke-width="14.333333333333332" stroke="#53c9c3" fill="none" opacity="0.9458333333333333" transform="rotate(41.666666666666664, 400, 400)"></rect><rect width="233.33333333333334" height="233.33333333333334" x="377.99999999999994" y="377.99999999999994" stroke-width="14.666666666666666" stroke="#58c0d0" fill="none" opacity="0.9566666666666667" transform="rotate(33.33333333333333, 400, 400)"></rect><rect width="250" height="250" x="346" y="346" stroke-width="15" stroke="#5db7dd" fill="none" opacity="0.9675" transform="rotate(25, 400, 400)"></rect><rect width="266.6666666666667" height="266.6666666666667" x="314" y="314" stroke-width="15.333333333333332" stroke="#62ade9" fill="none" opacity="0.9783333333333333" transform="rotate(16.666666666666657, 400, 400)"></rect><rect width="283.33333333333337" height="283.33333333333337" x="281.99999999999994" y="281.99999999999994" stroke-width="15.666666666666666" stroke="#67a2f4" fill="none" opacity="0.9891666666666666" transform="rotate(8.333333333333329, 400, 400)"></rect><rect width="300" height="300" x="250" y="250" stroke-width="16" stroke="#6b97ff" fill="none" opacity="1" transform="rotate(0, 400, 400)"></rect></g></svg>